<svg xmlns="http://www.w3.org/2000/svg" xmlns:xlink="http://www.w3.org/1999/xlink" width="185" zoomAndPan="magnify" viewBox="0 0 138.75 36.750001" height="49" preserveAspectRatio="xMidYMid meet" version="1.0"><defs><g/></defs><g fill="#000000" fill-opacity="1"><g transform="translate(3.458694, 26.966563)"><g><path d="M 16.234375 -11.328125 C 16.171875 -11.109375 16.101562 -10.882812 16.03125 -10.65625 C 15.96875 -10.425781 15.941406 -10.164062 15.953125 -9.875 C 16.140625 -9.894531 16.3125 -9.914062 16.46875 -9.9375 C 16.632812 -9.96875 16.796875 -9.988281 16.953125 -10 C 17.304688 -10.03125 17.648438 -10.0625 17.984375 -10.09375 C 18.328125 -10.125 18.664062 -10.148438 19 -10.171875 C 19.144531 -10.171875 19.285156 -10.148438 19.421875 -10.109375 C 19.566406 -10.066406 19.703125 -10.023438 19.828125 -9.984375 C 19.960938 -9.929688 20.066406 -9.859375 20.140625 -9.765625 C 20.222656 -9.671875 20.25 -9.523438 20.21875 -9.328125 C 19.914062 -9.109375 19.582031 -9.070312 19.21875 -9.21875 C 18.976562 -9.3125 18.742188 -9.34375 18.515625 -9.3125 C 18.285156 -9.28125 18.054688 -9.238281 17.828125 -9.1875 C 17.460938 -9.113281 17.085938 -9.03125 16.703125 -8.9375 C 16.328125 -8.851562 15.941406 -8.765625 15.546875 -8.671875 C 15.140625 -7.347656 14.757812 -6.019531 14.40625 -4.6875 C 14.050781 -3.351562 13.703125 -2.03125 13.359375 -0.71875 C 13.023438 0.601562 12.691406 1.921875 12.359375 3.234375 C 12.035156 4.554688 11.707031 5.875 11.375 7.1875 C 11.113281 7.207031 10.9375 7.195312 10.84375 7.15625 C 10.757812 7.113281 10.71875 7.019531 10.71875 6.875 C 10.726562 6.539062 10.734375 6.210938 10.734375 5.890625 C 10.734375 5.566406 10.765625 5.242188 10.828125 4.921875 C 11.097656 3.609375 11.378906 2.296875 11.671875 0.984375 C 11.972656 -0.316406 12.265625 -1.617188 12.546875 -2.921875 C 12.722656 -3.671875 12.898438 -4.414062 13.078125 -5.15625 C 13.265625 -5.894531 13.445312 -6.632812 13.625 -7.375 C 13.65625 -7.476562 13.675781 -7.582031 13.6875 -7.6875 C 13.707031 -7.800781 13.734375 -7.929688 13.765625 -8.078125 C 13.671875 -8.078125 13.585938 -8.082031 13.515625 -8.09375 C 13.441406 -8.113281 13.378906 -8.113281 13.328125 -8.09375 C 12.097656 -7.75 10.863281 -7.394531 9.625 -7.03125 C 8.382812 -6.675781 7.144531 -6.328125 5.90625 -5.984375 C 5.851562 -5.960938 5.800781 -5.9375 5.75 -5.90625 C 5.707031 -5.875 5.664062 -5.847656 5.625 -5.828125 C 5.507812 -5.546875 5.375 -5.125 5.21875 -4.5625 C 5.0625 -4 4.890625 -3.359375 4.703125 -2.640625 C 4.515625 -1.929688 4.328125 -1.191406 4.140625 -0.421875 C 3.960938 0.335938 3.796875 1.054688 3.640625 1.734375 C 3.492188 2.421875 3.378906 3.007812 3.296875 3.5 C 3.210938 3.988281 3.171875 4.332031 3.171875 4.53125 C 2.546875 4.789062 2.226562 4.644531 2.21875 4.09375 C 2.21875 3.78125 2.222656 3.46875 2.234375 3.15625 C 2.253906 2.84375 2.296875 2.535156 2.359375 2.234375 C 2.566406 1.140625 2.773438 0.0390625 2.984375 -1.0625 C 3.203125 -2.164062 3.414062 -3.269531 3.625 -4.375 C 3.632812 -4.488281 3.644531 -4.613281 3.65625 -4.75 C 3.675781 -4.882812 3.703125 -5.03125 3.734375 -5.1875 C 3.421875 -5.15625 3.140625 -5.082031 2.890625 -4.96875 C 2.648438 -4.863281 2.398438 -4.769531 2.140625 -4.6875 C 1.953125 -4.625 1.757812 -4.570312 1.5625 -4.53125 C 1.375 -4.5 1.1875 -4.472656 1 -4.453125 C 0.90625 -4.453125 0.8125 -4.484375 0.71875 -4.546875 C 0.625 -4.609375 0.519531 -4.664062 0.40625 -4.71875 C 0.59375 -5.113281 0.851562 -5.378906 1.1875 -5.515625 C 1.519531 -5.660156 1.847656 -5.804688 2.171875 -5.953125 C 2.472656 -6.109375 2.785156 -6.242188 3.109375 -6.359375 C 3.429688 -6.484375 3.769531 -6.617188 4.125 -6.765625 C 4.226562 -7.242188 4.335938 -7.710938 4.453125 -8.171875 C 4.578125 -8.640625 4.695312 -9.113281 4.8125 -9.59375 C 5.0625 -10.59375 5.3125 -11.59375 5.5625 -12.59375 C 5.820312 -13.59375 6.078125 -14.59375 6.328125 -15.59375 C 6.410156 -15.863281 6.492188 -16.125 6.578125 -16.375 C 6.671875 -16.632812 6.765625 -16.890625 6.859375 -17.140625 C 6.921875 -17.304688 7 -17.453125 7.09375 -17.578125 C 7.1875 -17.703125 7.320312 -17.796875 7.5 -17.859375 C 7.613281 -17.890625 7.726562 -17.894531 7.84375 -17.875 C 7.96875 -17.863281 8.179688 -17.796875 8.484375 -17.671875 C 8.460938 -17.242188 8.382812 -16.828125 8.25 -16.421875 C 8.113281 -16.015625 8 -15.597656 7.90625 -15.171875 C 7.8125 -14.742188 7.710938 -14.316406 7.609375 -13.890625 C 7.503906 -13.472656 7.394531 -13.054688 7.28125 -12.640625 C 7.082031 -11.785156 6.878906 -10.9375 6.671875 -10.09375 C 6.554688 -9.6875 6.445312 -9.265625 6.34375 -8.828125 C 6.238281 -8.398438 6.125 -7.957031 6 -7.5 C 6.125 -7.5 6.234375 -7.492188 6.328125 -7.484375 C 6.429688 -7.484375 6.519531 -7.488281 6.59375 -7.5 C 7.78125 -7.800781 8.96875 -8.101562 10.15625 -8.40625 C 11.351562 -8.71875 12.554688 -9.023438 13.765625 -9.328125 C 13.804688 -9.347656 13.851562 -9.375 13.90625 -9.40625 C 13.96875 -9.4375 14.039062 -9.46875 14.125 -9.5 C 14.164062 -9.644531 14.210938 -9.800781 14.265625 -9.96875 C 14.328125 -10.132812 14.382812 -10.304688 14.4375 -10.484375 C 14.863281 -12.097656 15.296875 -13.707031 15.734375 -15.3125 C 16.171875 -16.914062 16.617188 -18.519531 17.078125 -20.125 C 17.234375 -20.675781 17.414062 -21.222656 17.625 -21.765625 C 17.84375 -22.316406 18.0625 -22.859375 18.28125 -23.390625 C 18.414062 -23.691406 18.566406 -23.859375 18.734375 -23.890625 C 18.898438 -23.921875 19.171875 -23.851562 19.546875 -23.6875 C 19.535156 -23.414062 19.492188 -23.15625 19.421875 -22.90625 C 19.359375 -22.65625 19.296875 -22.394531 19.234375 -22.125 C 18.734375 -20.332031 18.234375 -18.535156 17.734375 -16.734375 C 17.234375 -14.929688 16.734375 -13.128906 16.234375 -11.328125 Z M 16.234375 -11.328125 "/></g></g></g><g fill="#000000" fill-opacity="1"><g transform="translate(19.310105, 26.966563)"><g><path d="M 10.375 -3.484375 C 10.582031 -3.773438 10.835938 -3.789062 11.140625 -3.53125 C 11.160156 -3.320312 11.117188 -3.128906 11.015625 -2.953125 C 10.910156 -2.773438 10.785156 -2.625 10.640625 -2.5 C 10.429688 -2.3125 10.222656 -2.128906 10.015625 -1.953125 C 9.816406 -1.773438 9.601562 -1.613281 9.375 -1.46875 C 8.707031 -1.03125 8.015625 -0.628906 7.296875 -0.265625 C 6.585938 0.0859375 5.863281 0.414062 5.125 0.71875 C 4.21875 1.082031 3.296875 1.21875 2.359375 1.125 C 2.035156 1.09375 1.71875 1.019531 1.40625 0.90625 C 1.050781 0.78125 0.78125 0.585938 0.59375 0.328125 C 0.414062 0.078125 0.351562 -0.226562 0.40625 -0.59375 C 0.445312 -0.925781 0.503906 -1.25 0.578125 -1.5625 C 0.648438 -1.882812 0.75 -2.195312 0.875 -2.5 C 1.132812 -3.082031 1.398438 -3.671875 1.671875 -4.265625 C 1.953125 -4.867188 2.253906 -5.457031 2.578125 -6.03125 C 3.078125 -6.945312 3.59375 -7.859375 4.125 -8.765625 C 4.65625 -9.671875 5.1875 -10.582031 5.71875 -11.5 C 6.050781 -12.125 6.382812 -12.742188 6.71875 -13.359375 C 7.050781 -13.972656 7.375 -14.609375 7.6875 -15.265625 C 7.832031 -15.566406 7.945312 -15.882812 8.03125 -16.21875 C 8.125 -16.550781 8.21875 -16.882812 8.3125 -17.21875 C 8.351562 -17.363281 8.363281 -17.503906 8.34375 -17.640625 C 8.332031 -17.785156 8.257812 -17.9375 8.125 -18.09375 C 8.039062 -18.050781 7.953125 -18.015625 7.859375 -17.984375 C 7.765625 -17.953125 7.671875 -17.910156 7.578125 -17.859375 C 6.941406 -17.460938 6.335938 -17.023438 5.765625 -16.546875 C 5.191406 -16.066406 4.648438 -15.5625 4.140625 -15.03125 C 3.992188 -14.863281 3.882812 -14.753906 3.8125 -14.703125 C 3.75 -14.660156 3.570312 -14.59375 3.28125 -14.5 C 3.300781 -14.613281 3.304688 -14.722656 3.296875 -14.828125 C 3.285156 -14.941406 3.296875 -15.039062 3.328125 -15.125 C 3.773438 -16 4.332031 -16.753906 5 -17.390625 C 5.664062 -18.035156 6.453125 -18.550781 7.359375 -18.9375 C 7.910156 -19.164062 8.484375 -19.210938 9.078125 -19.078125 C 9.910156 -18.867188 10.328125 -18.351562 10.328125 -17.53125 C 10.316406 -16.96875 10.222656 -16.4375 10.046875 -15.9375 C 9.890625 -15.53125 9.722656 -15.125 9.546875 -14.71875 C 9.367188 -14.320312 9.179688 -13.929688 8.984375 -13.546875 C 8.609375 -12.867188 8.226562 -12.191406 7.84375 -11.515625 C 7.457031 -10.835938 7.066406 -10.160156 6.671875 -9.484375 C 6.078125 -8.460938 5.488281 -7.4375 4.90625 -6.40625 C 4.332031 -5.375 3.816406 -4.316406 3.359375 -3.234375 C 3.234375 -2.898438 3.113281 -2.554688 3 -2.203125 C 2.882812 -1.859375 2.78125 -1.515625 2.6875 -1.171875 C 2.644531 -0.992188 2.625 -0.859375 2.625 -0.765625 C 2.625 -0.671875 2.644531 -0.554688 2.6875 -0.421875 C 2.738281 -0.296875 2.816406 -0.0976562 2.921875 0.171875 C 3.304688 0.148438 3.664062 0.09375 4 0 C 4.332031 -0.09375 4.660156 -0.203125 4.984375 -0.328125 C 5.503906 -0.554688 6.015625 -0.785156 6.515625 -1.015625 C 7.023438 -1.242188 7.535156 -1.476562 8.046875 -1.71875 C 8.492188 -1.9375 8.921875 -2.175781 9.328125 -2.4375 C 9.734375 -2.695312 10.082031 -3.046875 10.375 -3.484375 Z M 10.375 -3.484375 "/></g></g></g><g fill="#000000" fill-opacity="1"><g transform="translate(28.472901, 26.966563)"><g><path d="M 16.03125 -19.046875 C 16.070312 -18.796875 16.035156 -18.554688 15.921875 -18.328125 C 15.816406 -18.097656 15.71875 -17.867188 15.625 -17.640625 C 15 -16.296875 14.367188 -14.945312 13.734375 -13.59375 C 13.097656 -12.25 12.488281 -10.894531 11.90625 -9.53125 C 11.21875 -7.988281 10.554688 -6.4375 9.921875 -4.875 C 9.296875 -3.320312 8.65625 -1.757812 8 -0.1875 C 7.84375 0.1875 7.695312 0.566406 7.5625 0.953125 C 7.4375 1.347656 7.304688 1.742188 7.171875 2.140625 C 6.742188 2.140625 6.460938 2.078125 6.328125 1.953125 C 6.191406 1.828125 6.160156 1.570312 6.234375 1.1875 C 6.410156 0.34375 6.625 -0.457031 6.875 -1.21875 C 7.5 -3.125 8.175781 -5 8.90625 -6.84375 C 9.632812 -8.695312 10.394531 -10.539062 11.1875 -12.375 C 11.25 -12.519531 11.304688 -12.664062 11.359375 -12.8125 C 11.421875 -12.957031 11.476562 -13.097656 11.53125 -13.234375 C 11.507812 -13.253906 11.488281 -13.269531 11.46875 -13.28125 C 11.445312 -13.300781 11.425781 -13.316406 11.40625 -13.328125 C 11.3125 -13.234375 11.210938 -13.140625 11.109375 -13.046875 C 11.003906 -12.953125 10.90625 -12.859375 10.8125 -12.765625 C 10.207031 -12.140625 9.601562 -11.515625 9 -10.890625 C 8.394531 -10.265625 7.785156 -9.644531 7.171875 -9.03125 C 6.609375 -8.488281 6.015625 -7.976562 5.390625 -7.5 C 4.765625 -7.019531 4.109375 -6.59375 3.421875 -6.21875 C 3.054688 -6.007812 2.703125 -5.84375 2.359375 -5.71875 C 2.066406 -5.625 1.78125 -5.578125 1.5 -5.578125 C 0.613281 -5.585938 0.265625 -6.03125 0.453125 -6.90625 C 0.503906 -7.113281 0.5625 -7.316406 0.625 -7.515625 C 0.695312 -7.722656 0.773438 -7.929688 0.859375 -8.140625 C 1.097656 -8.671875 1.335938 -9.203125 1.578125 -9.734375 C 1.828125 -10.265625 2.078125 -10.78125 2.328125 -11.28125 C 2.984375 -12.644531 3.644531 -14.003906 4.3125 -15.359375 C 4.976562 -16.710938 5.644531 -18.0625 6.3125 -19.40625 C 6.351562 -19.519531 6.398438 -19.632812 6.453125 -19.75 C 6.515625 -19.875 6.578125 -19.984375 6.640625 -20.078125 C 6.785156 -20.296875 6.941406 -20.414062 7.109375 -20.4375 C 7.285156 -20.46875 7.539062 -20.410156 7.875 -20.265625 C 7.90625 -19.960938 7.878906 -19.675781 7.796875 -19.40625 C 7.710938 -19.132812 7.613281 -18.875 7.5 -18.625 C 7.132812 -17.757812 6.765625 -16.898438 6.390625 -16.046875 C 6.015625 -15.203125 5.640625 -14.367188 5.265625 -13.546875 C 4.847656 -12.660156 4.421875 -11.773438 3.984375 -10.890625 C 3.546875 -10.015625 3.113281 -9.128906 2.6875 -8.234375 C 2.59375 -8.023438 2.5 -7.8125 2.40625 -7.59375 C 2.320312 -7.375 2.265625 -7.113281 2.234375 -6.8125 C 2.378906 -6.875 2.503906 -6.925781 2.609375 -6.96875 C 2.710938 -7.007812 2.800781 -7.0625 2.875 -7.125 C 3.375 -7.5 3.875 -7.875 4.375 -8.25 C 4.882812 -8.632812 5.378906 -9.046875 5.859375 -9.484375 C 6.984375 -10.515625 8.054688 -11.59375 9.078125 -12.71875 C 10.109375 -13.84375 11.082031 -15.007812 12 -16.21875 C 12.695312 -17.132812 13.410156 -18.003906 14.140625 -18.828125 C 14.429688 -19.160156 14.707031 -19.347656 14.96875 -19.390625 C 15.226562 -19.429688 15.554688 -19.359375 15.953125 -19.171875 C 15.953125 -19.171875 15.976562 -19.128906 16.03125 -19.046875 Z M 16.03125 -19.046875 "/></g></g></g><g fill="#000000" fill-opacity="1"><g transform="translate(49.512163, 24.469989)"><g><path d="M 0.796875 -13.4375 C 1.066406 -13.425781 1.414062 -13.414062 1.84375 -13.40625 C 2.269531 -13.394531 2.691406 -13.390625 3.109375 -13.390625 C 3.703125 -13.390625 4.269531 -13.394531 4.8125 -13.40625 C 5.363281 -13.414062 5.753906 -13.421875 5.984375 -13.421875 C 7.003906 -13.421875 7.851562 -13.273438 8.53125 -12.984375 C 9.207031 -12.691406 9.710938 -12.296875 10.046875 -11.796875 C 10.390625 -11.296875 10.5625 -10.738281 10.5625 -10.125 C 10.5625 -9.738281 10.484375 -9.332031 10.328125 -8.90625 C 10.171875 -8.476562 9.90625 -8.070312 9.53125 -7.6875 C 9.164062 -7.3125 8.660156 -7 8.015625 -6.75 C 7.367188 -6.5 6.550781 -6.375 5.5625 -6.375 L 3.734375 -6.375 L 3.734375 -6.765625 L 5.375 -6.765625 C 6.269531 -6.765625 6.953125 -6.90625 7.421875 -7.1875 C 7.898438 -7.46875 8.222656 -7.84375 8.390625 -8.3125 C 8.566406 -8.789062 8.65625 -9.320312 8.65625 -9.90625 C 8.65625 -10.90625 8.414062 -11.679688 7.9375 -12.234375 C 7.46875 -12.785156 6.65625 -13.0625 5.5 -13.0625 C 4.914062 -13.0625 4.535156 -12.953125 4.359375 -12.734375 C 4.179688 -12.523438 4.09375 -12.085938 4.09375 -11.421875 L 4.09375 -2.015625 C 4.09375 -1.554688 4.128906 -1.210938 4.203125 -0.984375 C 4.285156 -0.753906 4.4375 -0.601562 4.65625 -0.53125 C 4.882812 -0.457031 5.210938 -0.40625 5.640625 -0.375 L 5.640625 0 C 5.347656 -0.0195312 4.984375 -0.0351562 4.546875 -0.046875 C 4.109375 -0.0546875 3.671875 -0.0625 3.234375 -0.0625 C 2.734375 -0.0625 2.269531 -0.0546875 1.84375 -0.046875 C 1.414062 -0.0351562 1.066406 -0.0195312 0.796875 0 L 0.796875 -0.375 C 1.222656 -0.40625 1.546875 -0.457031 1.765625 -0.53125 C 1.992188 -0.601562 2.144531 -0.753906 2.21875 -0.984375 C 2.289062 -1.210938 2.328125 -1.554688 2.328125 -2.015625 L 2.328125 -11.421875 C 2.328125 -11.890625 2.289062 -12.234375 2.21875 -12.453125 C 2.144531 -12.679688 1.992188 -12.835938 1.765625 -12.921875 C 1.546875 -13.003906 1.222656 -13.050781 0.796875 -13.0625 Z M 3.8125 -6.703125 C 4.5 -6.671875 5.035156 -6.640625 5.421875 -6.609375 C 5.816406 -6.578125 6.140625 -6.550781 6.390625 -6.53125 C 6.640625 -6.507812 6.875 -6.476562 7.09375 -6.4375 C 7.945312 -6.300781 8.554688 -6.046875 8.921875 -5.671875 C 9.296875 -5.296875 9.578125 -4.71875 9.765625 -3.9375 L 10.234375 -2 C 10.359375 -1.4375 10.488281 -1.03125 10.625 -0.78125 C 10.757812 -0.539062 10.960938 -0.425781 11.234375 -0.4375 C 11.453125 -0.445312 11.632812 -0.515625 11.78125 -0.640625 C 11.925781 -0.765625 12.082031 -0.9375 12.25 -1.15625 L 12.53125 -0.953125 C 12.257812 -0.554688 11.984375 -0.253906 11.703125 -0.046875 C 11.421875 0.160156 11.019531 0.265625 10.5 0.265625 C 10.03125 0.265625 9.617188 0.128906 9.265625 -0.140625 C 8.910156 -0.421875 8.644531 -0.96875 8.46875 -1.78125 L 8.046875 -3.6875 C 7.929688 -4.226562 7.800781 -4.695312 7.65625 -5.09375 C 7.507812 -5.488281 7.304688 -5.800781 7.046875 -6.03125 C 6.785156 -6.257812 6.40625 -6.375 5.90625 -6.375 L 3.859375 -6.375 Z M 3.8125 -6.703125 "/></g></g></g><g fill="#000000" fill-opacity="1"><g transform="translate(60.914201, 24.469989)"><g><path d="M 5.15625 -10.046875 C 6.269531 -10.046875 7.140625 -9.707031 7.765625 -9.03125 C 8.398438 -8.351562 8.71875 -7.296875 8.71875 -5.859375 L 2.015625 -5.859375 L 2 -6.234375 L 6.890625 -6.234375 C 6.910156 -6.847656 6.859375 -7.414062 6.734375 -7.9375 C 6.609375 -8.46875 6.410156 -8.890625 6.140625 -9.203125 C 5.867188 -9.523438 5.519531 -9.6875 5.09375 -9.6875 C 4.507812 -9.6875 3.988281 -9.394531 3.53125 -8.8125 C 3.082031 -8.226562 2.816406 -7.300781 2.734375 -6.03125 L 2.796875 -5.96875 C 2.765625 -5.769531 2.742188 -5.554688 2.734375 -5.328125 C 2.722656 -5.109375 2.71875 -4.882812 2.71875 -4.65625 C 2.71875 -3.789062 2.851562 -3.046875 3.125 -2.421875 C 3.40625 -1.804688 3.769531 -1.335938 4.21875 -1.015625 C 4.664062 -0.691406 5.132812 -0.53125 5.625 -0.53125 C 6 -0.53125 6.359375 -0.585938 6.703125 -0.703125 C 7.046875 -0.828125 7.363281 -1.03125 7.65625 -1.3125 C 7.945312 -1.59375 8.195312 -1.96875 8.40625 -2.4375 L 8.796875 -2.28125 C 8.648438 -1.863281 8.414062 -1.457031 8.09375 -1.0625 C 7.78125 -0.664062 7.382812 -0.34375 6.90625 -0.09375 C 6.425781 0.144531 5.867188 0.265625 5.234375 0.265625 C 4.328125 0.265625 3.546875 0.0546875 2.890625 -0.359375 C 2.242188 -0.773438 1.742188 -1.351562 1.390625 -2.09375 C 1.046875 -2.832031 0.875 -3.6875 0.875 -4.65625 C 0.875 -5.769531 1.050781 -6.726562 1.40625 -7.53125 C 1.757812 -8.332031 2.257812 -8.953125 2.90625 -9.390625 C 3.550781 -9.828125 4.300781 -10.046875 5.15625 -10.046875 Z M 5.15625 -10.046875 "/></g></g></g><g fill="#000000" fill-opacity="1"><g transform="translate(69.622133, 24.469989)"><g><path d="M 6.921875 -10.046875 C 7.410156 -10.046875 7.816406 -9.976562 8.140625 -9.84375 C 8.460938 -9.71875 8.726562 -9.546875 8.9375 -9.328125 C 9.175781 -9.066406 9.347656 -8.742188 9.453125 -8.359375 C 9.554688 -7.984375 9.609375 -7.472656 9.609375 -6.828125 L 9.609375 -1.765625 C 9.609375 -1.234375 9.71875 -0.875 9.9375 -0.6875 C 10.15625 -0.5 10.523438 -0.40625 11.046875 -0.40625 L 11.046875 0 C 10.828125 -0.0078125 10.492188 -0.0234375 10.046875 -0.046875 C 9.609375 -0.0664062 9.179688 -0.078125 8.765625 -0.078125 C 8.347656 -0.078125 7.941406 -0.0664062 7.546875 -0.046875 C 7.148438 -0.0234375 6.847656 -0.0078125 6.640625 0 L 6.640625 -0.40625 C 7.097656 -0.40625 7.421875 -0.5 7.609375 -0.6875 C 7.796875 -0.875 7.890625 -1.234375 7.890625 -1.765625 L 7.890625 -7.25 C 7.890625 -7.644531 7.859375 -8.003906 7.796875 -8.328125 C 7.734375 -8.660156 7.59375 -8.925781 7.375 -9.125 C 7.15625 -9.332031 6.816406 -9.4375 6.359375 -9.4375 C 5.828125 -9.4375 5.359375 -9.285156 4.953125 -8.984375 C 4.554688 -8.679688 4.25 -8.265625 4.03125 -7.734375 C 3.8125 -7.210938 3.703125 -6.628906 3.703125 -5.984375 L 3.703125 -1.765625 C 3.703125 -1.234375 3.796875 -0.875 3.984375 -0.6875 C 4.171875 -0.5 4.492188 -0.40625 4.953125 -0.40625 L 4.953125 0 C 4.753906 -0.0078125 4.453125 -0.0234375 4.046875 -0.046875 C 3.648438 -0.0664062 3.242188 -0.078125 2.828125 -0.078125 C 2.410156 -0.078125 1.976562 -0.0664062 1.53125 -0.046875 C 1.09375 -0.0234375 0.765625 -0.0078125 0.546875 0 L 0.546875 -0.40625 C 1.066406 -0.40625 1.4375 -0.5 1.65625 -0.6875 C 1.882812 -0.875 2 -1.234375 2 -1.765625 L 2 -7.703125 C 2 -8.273438 1.894531 -8.695312 1.6875 -8.96875 C 1.488281 -9.238281 1.109375 -9.375 0.546875 -9.375 L 0.546875 -9.78125 C 0.953125 -9.738281 1.347656 -9.71875 1.734375 -9.71875 C 2.097656 -9.71875 2.445312 -9.738281 2.78125 -9.78125 C 3.113281 -9.832031 3.421875 -9.898438 3.703125 -9.984375 L 3.703125 -7.75 C 4.035156 -8.601562 4.492188 -9.195312 5.078125 -9.53125 C 5.671875 -9.875 6.285156 -10.046875 6.921875 -10.046875 Z M 6.921875 -10.046875 "/></g></g></g><g fill="#000000" fill-opacity="1"><g transform="translate(80.056575, 24.469989)"><g><path d="M 5.203125 -10.046875 C 6.015625 -10.046875 6.742188 -9.867188 7.390625 -9.515625 C 8.035156 -9.160156 8.550781 -8.601562 8.9375 -7.84375 C 9.320312 -7.082031 9.515625 -6.09375 9.515625 -4.875 C 9.515625 -3.664062 9.320312 -2.679688 8.9375 -1.921875 C 8.550781 -1.171875 8.035156 -0.617188 7.390625 -0.265625 C 6.742188 0.0859375 6.015625 0.265625 5.203125 0.265625 C 4.398438 0.265625 3.671875 0.0859375 3.015625 -0.265625 C 2.367188 -0.617188 1.851562 -1.171875 1.46875 -1.921875 C 1.082031 -2.679688 0.890625 -3.664062 0.890625 -4.875 C 0.890625 -6.09375 1.082031 -7.082031 1.46875 -7.84375 C 1.851562 -8.601562 2.367188 -9.160156 3.015625 -9.515625 C 3.671875 -9.867188 4.398438 -10.046875 5.203125 -10.046875 Z M 5.203125 -9.65625 C 4.484375 -9.65625 3.890625 -9.28125 3.421875 -8.53125 C 2.960938 -7.789062 2.734375 -6.570312 2.734375 -4.875 C 2.734375 -3.175781 2.960938 -1.957031 3.421875 -1.21875 C 3.890625 -0.476562 4.484375 -0.109375 5.203125 -0.109375 C 5.921875 -0.109375 6.507812 -0.476562 6.96875 -1.21875 C 7.4375 -1.957031 7.671875 -3.175781 7.671875 -4.875 C 7.671875 -6.570312 7.4375 -7.789062 6.96875 -8.53125 C 6.507812 -9.28125 5.921875 -9.65625 5.203125 -9.65625 Z M 5.203125 -9.65625 "/></g></g></g><g fill="#000000" fill-opacity="1"><g transform="translate(89.561363, 24.469989)"><g><path d="M 9.21875 -9.78125 L 9.21875 -9.390625 C 8.976562 -9.367188 8.757812 -9.265625 8.5625 -9.078125 C 8.363281 -8.890625 8.175781 -8.550781 8 -8.0625 L 4.875 0.09375 C 4.820312 0.09375 4.769531 0.09375 4.71875 0.09375 C 4.675781 0.09375 4.625 0.09375 4.5625 0.09375 L 1.0625 -8.3125 C 0.863281 -8.8125 0.664062 -9.113281 0.46875 -9.21875 C 0.269531 -9.320312 0.101562 -9.375 -0.03125 -9.375 L -0.03125 -9.78125 C 0.21875 -9.769531 0.476562 -9.753906 0.75 -9.734375 C 1.019531 -9.710938 1.3125 -9.703125 1.625 -9.703125 C 2.019531 -9.703125 2.4375 -9.707031 2.875 -9.71875 C 3.3125 -9.726562 3.71875 -9.75 4.09375 -9.78125 L 4.09375 -9.375 C 3.78125 -9.375 3.5 -9.351562 3.25 -9.3125 C 3.007812 -9.269531 2.851562 -9.144531 2.78125 -8.9375 C 2.707031 -8.738281 2.769531 -8.390625 2.96875 -7.890625 L 5.328125 -2.03125 L 5.21875 -1.9375 L 7.390625 -7.609375 C 7.546875 -8.023438 7.609375 -8.359375 7.578125 -8.609375 C 7.546875 -8.859375 7.421875 -9.046875 7.203125 -9.171875 C 6.984375 -9.296875 6.644531 -9.367188 6.1875 -9.390625 L 6.1875 -9.78125 C 6.414062 -9.769531 6.613281 -9.757812 6.78125 -9.75 C 6.945312 -9.738281 7.109375 -9.726562 7.265625 -9.71875 C 7.421875 -9.71875 7.59375 -9.71875 7.78125 -9.71875 C 8.070312 -9.71875 8.332031 -9.722656 8.5625 -9.734375 C 8.800781 -9.753906 9.019531 -9.769531 9.21875 -9.78125 Z M 9.21875 -9.78125 "/></g></g></g><g fill="#000000" fill-opacity="1"><g transform="translate(97.946763, 24.469989)"><g><path d="M 3.25 0.140625 C 2.726562 0.140625 2.273438 0.0390625 1.890625 -0.15625 C 1.515625 -0.351562 1.226562 -0.628906 1.03125 -0.984375 C 0.832031 -1.335938 0.734375 -1.75 0.734375 -2.21875 C 0.734375 -2.78125 0.863281 -3.238281 1.125 -3.59375 C 1.382812 -3.945312 1.71875 -4.226562 2.125 -4.4375 C 2.53125 -4.65625 2.957031 -4.835938 3.40625 -4.984375 C 3.851562 -5.128906 4.28125 -5.265625 4.6875 -5.390625 C 5.09375 -5.523438 5.425781 -5.679688 5.6875 -5.859375 C 5.945312 -6.035156 6.078125 -6.269531 6.078125 -6.5625 L 6.078125 -7.75 C 6.078125 -8.28125 5.992188 -8.679688 5.828125 -8.953125 C 5.671875 -9.234375 5.457031 -9.421875 5.1875 -9.515625 C 4.925781 -9.609375 4.632812 -9.65625 4.3125 -9.65625 C 3.988281 -9.65625 3.644531 -9.609375 3.28125 -9.515625 C 2.925781 -9.429688 2.644531 -9.253906 2.4375 -8.984375 C 2.675781 -8.929688 2.882812 -8.800781 3.0625 -8.59375 C 3.238281 -8.394531 3.328125 -8.140625 3.328125 -7.828125 C 3.328125 -7.503906 3.222656 -7.25 3.015625 -7.0625 C 2.816406 -6.882812 2.554688 -6.796875 2.234375 -6.796875 C 1.867188 -6.796875 1.597656 -6.910156 1.421875 -7.140625 C 1.253906 -7.378906 1.171875 -7.644531 1.171875 -7.9375 C 1.171875 -8.257812 1.253906 -8.519531 1.421875 -8.71875 C 1.585938 -8.925781 1.796875 -9.117188 2.046875 -9.296875 C 2.335938 -9.503906 2.710938 -9.679688 3.171875 -9.828125 C 3.640625 -9.972656 4.164062 -10.046875 4.75 -10.046875 C 5.269531 -10.046875 5.710938 -9.984375 6.078125 -9.859375 C 6.441406 -9.742188 6.742188 -9.570312 6.984375 -9.34375 C 7.316406 -9.039062 7.53125 -8.671875 7.625 -8.234375 C 7.726562 -7.796875 7.78125 -7.269531 7.78125 -6.65625 L 7.78125 -1.390625 C 7.78125 -1.066406 7.828125 -0.835938 7.921875 -0.703125 C 8.015625 -0.566406 8.164062 -0.5 8.375 -0.5 C 8.507812 -0.5 8.640625 -0.53125 8.765625 -0.59375 C 8.890625 -0.65625 9.039062 -0.753906 9.21875 -0.890625 L 9.4375 -0.5625 C 9.164062 -0.363281 8.910156 -0.195312 8.671875 -0.0625 C 8.429688 0.0703125 8.109375 0.140625 7.703125 0.140625 C 7.335938 0.140625 7.035156 0.078125 6.796875 -0.046875 C 6.554688 -0.179688 6.375 -0.367188 6.25 -0.609375 C 6.132812 -0.859375 6.078125 -1.175781 6.078125 -1.5625 C 5.734375 -0.988281 5.320312 -0.5625 4.84375 -0.28125 C 4.375 0 3.84375 0.140625 3.25 0.140625 Z M 3.9375 -0.625 C 4.351562 -0.625 4.738281 -0.742188 5.09375 -0.984375 C 5.457031 -1.222656 5.785156 -1.582031 6.078125 -2.0625 L 6.078125 -5.796875 C 5.921875 -5.578125 5.695312 -5.394531 5.40625 -5.25 C 5.113281 -5.101562 4.796875 -4.957031 4.453125 -4.8125 C 4.117188 -4.664062 3.796875 -4.492188 3.484375 -4.296875 C 3.171875 -4.097656 2.910156 -3.84375 2.703125 -3.53125 C 2.503906 -3.21875 2.40625 -2.804688 2.40625 -2.296875 C 2.40625 -1.785156 2.539062 -1.378906 2.8125 -1.078125 C 3.09375 -0.773438 3.46875 -0.625 3.9375 -0.625 Z M 3.9375 -0.625 "/></g></g></g><g fill="#000000" fill-opacity="1"><g transform="translate(106.502915, 24.469989)"><g><path d="M 3.609375 -12.921875 L 3.609375 -9.765625 L 6.421875 -9.765625 L 6.421875 -9.375 L 3.609375 -9.375 L 3.609375 -2.03125 C 3.609375 -1.4375 3.710938 -1.019531 3.921875 -0.78125 C 4.140625 -0.539062 4.441406 -0.421875 4.828125 -0.421875 C 5.203125 -0.421875 5.53125 -0.570312 5.8125 -0.875 C 6.09375 -1.1875 6.332031 -1.710938 6.53125 -2.453125 L 6.90625 -2.359375 C 6.78125 -1.617188 6.53125 -0.992188 6.15625 -0.484375 C 5.78125 0.015625 5.207031 0.265625 4.4375 0.265625 C 4.007812 0.265625 3.65625 0.207031 3.375 0.09375 C 3.101562 -0.0078125 2.859375 -0.160156 2.640625 -0.359375 C 2.359375 -0.648438 2.160156 -1 2.046875 -1.40625 C 1.941406 -1.8125 1.890625 -2.347656 1.890625 -3.015625 L 1.890625 -9.375 L 0.078125 -9.375 L 0.078125 -9.765625 L 1.890625 -9.765625 L 1.890625 -12.65625 C 2.210938 -12.675781 2.519531 -12.703125 2.8125 -12.734375 C 3.101562 -12.773438 3.367188 -12.835938 3.609375 -12.921875 Z M 3.609375 -12.921875 "/></g></g></g><g fill="#000000" fill-opacity="1"><g transform="translate(112.327019, 24.469989)"><g><path d="M 2.703125 -14.515625 C 3.035156 -14.515625 3.320312 -14.394531 3.5625 -14.15625 C 3.800781 -13.914062 3.921875 -13.632812 3.921875 -13.3125 C 3.921875 -12.976562 3.800781 -12.691406 3.5625 -12.453125 C 3.320312 -12.210938 3.035156 -12.09375 2.703125 -12.09375 C 2.378906 -12.09375 2.097656 -12.210938 1.859375 -12.453125 C 1.617188 -12.691406 1.5 -12.976562 1.5 -13.3125 C 1.5 -13.632812 1.617188 -13.914062 1.859375 -14.15625 C 2.097656 -14.394531 2.378906 -14.515625 2.703125 -14.515625 Z M 3.703125 -9.984375 L 3.703125 -1.765625 C 3.703125 -1.234375 3.8125 -0.875 4.03125 -0.6875 C 4.25 -0.5 4.617188 -0.40625 5.140625 -0.40625 L 5.140625 0 C 4.929688 -0.0078125 4.609375 -0.0234375 4.171875 -0.046875 C 3.734375 -0.0664062 3.289062 -0.078125 2.84375 -0.078125 C 2.414062 -0.078125 1.976562 -0.0664062 1.53125 -0.046875 C 1.09375 -0.0234375 0.765625 -0.0078125 0.546875 0 L 0.546875 -0.40625 C 1.066406 -0.40625 1.4375 -0.5 1.65625 -0.6875 C 1.882812 -0.875 2 -1.234375 2 -1.765625 L 2 -7.703125 C 2 -8.273438 1.894531 -8.695312 1.6875 -8.96875 C 1.488281 -9.238281 1.109375 -9.375 0.546875 -9.375 L 0.546875 -9.78125 C 0.953125 -9.738281 1.347656 -9.71875 1.734375 -9.71875 C 2.097656 -9.71875 2.445312 -9.738281 2.78125 -9.78125 C 3.113281 -9.832031 3.421875 -9.898438 3.703125 -9.984375 Z M 3.703125 -9.984375 "/></g></g></g><g fill="#000000" fill-opacity="1"><g transform="translate(116.993804, 24.469989)"><g><path d="M 5.203125 -10.046875 C 6.015625 -10.046875 6.742188 -9.867188 7.390625 -9.515625 C 8.035156 -9.160156 8.550781 -8.601562 8.9375 -7.84375 C 9.320312 -7.082031 9.515625 -6.09375 9.515625 -4.875 C 9.515625 -3.664062 9.320312 -2.679688 8.9375 -1.921875 C 8.550781 -1.171875 8.035156 -0.617188 7.390625 -0.265625 C 6.742188 0.0859375 6.015625 0.265625 5.203125 0.265625 C 4.398438 0.265625 3.671875 0.0859375 3.015625 -0.265625 C 2.367188 -0.617188 1.851562 -1.171875 1.46875 -1.921875 C 1.082031 -2.679688 0.890625 -3.664062 0.890625 -4.875 C 0.890625 -6.09375 1.082031 -7.082031 1.46875 -7.84375 C 1.851562 -8.601562 2.367188 -9.160156 3.015625 -9.515625 C 3.671875 -9.867188 4.398438 -10.046875 5.203125 -10.046875 Z M 5.203125 -9.65625 C 4.484375 -9.65625 3.890625 -9.28125 3.421875 -8.53125 C 2.960938 -7.789062 2.734375 -6.570312 2.734375 -4.875 C 2.734375 -3.175781 2.960938 -1.957031 3.421875 -1.21875 C 3.890625 -0.476562 4.484375 -0.109375 5.203125 -0.109375 C 5.921875 -0.109375 6.507812 -0.476562 6.96875 -1.21875 C 7.4375 -1.957031 7.671875 -3.175781 7.671875 -4.875 C 7.671875 -6.570312 7.4375 -7.789062 6.96875 -8.53125 C 6.507812 -9.28125 5.921875 -9.65625 5.203125 -9.65625 Z M 5.203125 -9.65625 "/></g></g></g><g fill="#000000" fill-opacity="1"><g transform="translate(126.498592, 24.469989)"><g><path d="M 6.921875 -10.046875 C 7.410156 -10.046875 7.816406 -9.976562 8.140625 -9.84375 C 8.460938 -9.71875 8.726562 -9.546875 8.9375 -9.328125 C 9.175781 -9.066406 9.347656 -8.742188 9.453125 -8.359375 C 9.554688 -7.984375 9.609375 -7.472656 9.609375 -6.828125 L 9.609375 -1.765625 C 9.609375 -1.234375 9.71875 -0.875 9.9375 -0.6875 C 10.15625 -0.5 10.523438 -0.40625 11.046875 -0.40625 L 11.046875 0 C 10.828125 -0.0078125 10.492188 -0.0234375 10.046875 -0.046875 C 9.609375 -0.0664062 9.179688 -0.078125 8.765625 -0.078125 C 8.347656 -0.078125 7.941406 -0.0664062 7.546875 -0.046875 C 7.148438 -0.0234375 6.847656 -0.0078125 6.640625 0 L 6.640625 -0.40625 C 7.097656 -0.40625 7.421875 -0.5 7.609375 -0.6875 C 7.796875 -0.875 7.890625 -1.234375 7.890625 -1.765625 L 7.890625 -7.25 C 7.890625 -7.644531 7.859375 -8.003906 7.796875 -8.328125 C 7.734375 -8.660156 7.59375 -8.925781 7.375 -9.125 C 7.15625 -9.332031 6.816406 -9.4375 6.359375 -9.4375 C 5.828125 -9.4375 5.359375 -9.285156 4.953125 -8.984375 C 4.554688 -8.679688 4.25 -8.265625 4.03125 -7.734375 C 3.8125 -7.210938 3.703125 -6.628906 3.703125 -5.984375 L 3.703125 -1.765625 C 3.703125 -1.234375 3.796875 -0.875 3.984375 -0.6875 C 4.171875 -0.5 4.492188 -0.40625 4.953125 -0.40625 L 4.953125 0 C 4.753906 -0.0078125 4.453125 -0.0234375 4.046875 -0.046875 C 3.648438 -0.0664062 3.242188 -0.078125 2.828125 -0.078125 C 2.410156 -0.078125 1.976562 -0.0664062 1.53125 -0.046875 C 1.09375 -0.0234375 0.765625 -0.0078125 0.546875 0 L 0.546875 -0.40625 C 1.066406 -0.40625 1.4375 -0.5 1.65625 -0.6875 C 1.882812 -0.875 2 -1.234375 2 -1.765625 L 2 -7.703125 C 2 -8.273438 1.894531 -8.695312 1.6875 -8.96875 C 1.488281 -9.238281 1.109375 -9.375 0.546875 -9.375 L 0.546875 -9.78125 C 0.953125 -9.738281 1.347656 -9.71875 1.734375 -9.71875 C 2.097656 -9.71875 2.445312 -9.738281 2.78125 -9.78125 C 3.113281 -9.832031 3.421875 -9.898438 3.703125 -9.984375 L 3.703125 -7.75 C 4.035156 -8.601562 4.492188 -9.195312 5.078125 -9.53125 C 5.671875 -9.875 6.285156 -10.046875 6.921875 -10.046875 Z M 6.921875 -10.046875 "/></g></g></g></svg>